<?xml version="1.0" standalone="no"?>
<!DOCTYPE svg PUBLIC "-//W3C//DTD SVG 20010904//EN"
 "http://www.w3.org/TR/2001/REC-SVG-20010904/DTD/svg10.dtd">
<svg version="1.0" xmlns="http://www.w3.org/2000/svg"
 width="2048.000000pt" height="2048.000000pt" viewBox="0 0 2048.000000 2048.000000"
 preserveAspectRatio="xMidYMid meet">

<g transform="translate(0.000000,2048.000000) scale(0.100000,-0.100000)"
fill="#000000" stroke="none">
<path d="M0 10240 l0 -10240 10240 0 10240 0 0 10240 0 10240 -10240 0 -10240
0 0 -10240z m19231 9160 c63 -33 118 -89 152 -154 25 -51 31 -73 31 -132 1
-61 -4 -79 -33 -137 -30 -59 -94 -129 -146 -159 -16 -10 -55 19 -55 40 1 9 29
42 64 72 50 44 66 65 79 106 23 69 21 110 -7 169 -26 56 -66 94 -136 130 -60
31 -77 50 -60 70 17 21 64 19 111 -5z m-266 -28 c28 -20 227 -235 244 -264
l20 -32 -41 -38 -40 -37 -18 21 c-20 26 -99 34 -215 23 l-75 -7 16 -29 c8 -16
48 -57 89 -91 77 -62 91 -89 56 -107 -45 -25 -210 113 -233 194 -6 22 -17 47
-25 56 -19 23 -17 30 25 71 30 29 41 35 50 26 7 -7 12 -18 12 -25 0 -10 29
-13 128 -13 l127 1 -35 32 c-19 18 -64 63 -99 100 l-64 67 28 30 c31 32 34 34
50 22z m-8632 -3956 c3 -8 0 -17 -7 -19 -10 -4 -12 1 -9 14 6 23 9 24 16 5z
m14 -133 c-2 -21 -4 -4 -4 37 0 41 2 58 4 38 2 -21 2 -55 0 -75z m0 -235 c-3
-7 -5 -2 -5 12 0 14 2 19 5 13 2 -7 2 -19 0 -25z m0 -400 c-2 -29 -3 -6 -3 52
0 58 1 81 3 53 2 -29 2 -77 0 -105z m0 -240 c-2 -29 -3 -6 -3 52 0 58 1 81 3
53 2 -29 2 -77 0 -105z m75 -1327 c415 -65 749 -257 981 -565 323 -428 364
-1040 100 -1501 -306 -534 -919 -811 -1533 -695 -277 52 -530 188 -735 394
-167 168 -266 327 -339 546 -79 236 -90 528 -31 785 72 308 283 604 569 799
182 124 421 211 652 237 54 6 101 13 104 15 7 7 153 -2 232 -15z m1065 -3903
c-3 -7 -5 -2 -5 12 0 14 2 19 5 13 2 -7 2 -19 0 -25z m10 -55 c-3 -10 -5 -4
-5 12 0 17 2 24 5 18 2 -7 2 -21 0 -30z m10 -95 c-2 -13 -4 -5 -4 17 -1 22 1
32 4 23 2 -10 2 -28 0 -40z m0 -75 c-3 -10 -5 -4 -5 12 0 17 2 24 5 18 2 -7 2
-21 0 -30z m-757 -1117 c0 -2 -21 -11 -47 -20 -35 -12 -50 -13 -57 -5 -8 9 -7
11 4 7 8 -3 31 1 50 8 38 14 50 16 50 10z m-460 -25 c0 -5 13 -11 29 -14 18
-4 31 -14 35 -29 5 -18 8 -20 15 -9 8 12 12 12 26 -2 15 -16 15 -17 -9 -17
l-26 0 -1 -112 c-1 -62 -2 -552 -2 -1088 -1 -536 -4 -1053 -7 -1148 l-5 -174
-30 -24 c-44 -35 -105 -33 -147 5 l-33 29 -3 1255 -2 1254 -60 7 c-33 4 -62
12 -66 18 -7 10 15 8 69 -8 12 -4 17 0 17 13 0 15 2 16 10 3 6 -9 10 -10 10
-3 0 6 8 12 18 13 38 2 156 17 145 18 -18 3 -16 22 2 22 8 0 15 -4 15 -9z
m274 -6 c3 -8 15 -15 28 -15 21 0 21 0 2 16 -18 15 -18 15 2 5 12 -6 24 -8 27
-5 3 3 8 1 11 -4 3 -5 -20 -17 -52 -25 -58 -17 -157 -32 -134 -21 6 3 13 15
13 27 1 17 2 18 6 5 2 -10 11 -18 18 -18 7 0 22 8 31 18 17 16 18 16 11 0 -4
-10 -2 -18 4 -18 7 0 9 11 7 25 -6 28 16 36 26 10z m-64 -16 c0 -5 -4 -9 -10
-9 -5 0 -10 7 -10 16 0 8 5 12 10 9 6 -3 10 -10 10 -16z"/>
</g>
</svg>
